<svg id="Layer_5" enable-background="new 0 0 64 64" height="512" viewBox="0 0 64 64" width="512" xmlns="http://www.w3.org/2000/svg"><g><path d="m59.5 37h-17.601c-.465-2.279-2.484-4-4.899-4h-1v-4.59c5.775-1.726 10-7.081 10-13.41 0-7.72-6.28-14-14-14s-14 6.28-14 14c0 6.329 4.225 11.684 10 13.41v4.59h-1c-2.414 0-4.434 1.721-4.899 4h-17.601l-3.5 4.667v21.333h62v-21.333zm-22.5-14h-10v-11c0-1.654 1.346-3 3-3h4c1.654 0 3 1.346 3 3zm1.619 2c-1.899 1.261-4.173 2-6.619 2s-4.72-.739-6.619-2zm-18.619-10c0-6.617 5.383-12 12-12s12 5.383 12 12c0 3.075-1.172 5.874-3.081 8h-1.919v-11c0-2.757-2.243-5-5-5h-4c-2.757 0-5 2.243-5 5v11h-1.919c-1.909-2.126-3.081-4.925-3.081-8zm10 13.84c.655.094 1.319.16 2 .16s1.345-.065 2-.16v4.16h-4zm-3 6.16h10c1.302 0 2.402.839 2.816 2h-15.632c.414-1.161 1.514-2 2.816-2zm-21.5 4h53l1.5 2h-56zm-2.5 22v-18h58v18z"/><path d="m5 59h28v-14h-28zm2-12h24v10h-24z"/><path d="m42 45c-3.859 0-7 3.14-7 7s3.141 7 7 7 7-3.14 7-7-3.141-7-7-7zm0 12c-2.757 0-5-2.243-5-5s2.243-5 5-5 5 2.243 5 5-2.243 5-5 5z"/><path d="m51 59h8v-6h-8zm2-4h4v2h-4z"/><path d="m51 51h8v-6h-8zm2-4h4v2h-4z"/><path d="m32 11c-1.654 0-3 1.346-3 3s1.346 3 3 3 3-1.346 3-3-1.346-3-3-3zm0 4c-.552 0-1-.449-1-1s.448-1 1-1 1 .449 1 1-.448 1-1 1z"/><path d="m29 19h2v2h-2z"/><path d="m33 19h2v2h-2z"/><path d="m50.242 19.243c1.134-1.134 1.758-2.64 1.758-4.243s-.624-3.109-1.758-4.243l-1.414 1.414c.756.756 1.172 1.761 1.172 2.829s-.416 2.073-1.172 2.829z"/><path d="m51.657 20.657 1.414 1.414c3.899-3.899 3.899-10.243 0-14.142l-1.414 1.414c3.119 3.119 3.119 8.195 0 11.314z"/><path d="m54.485 23.485 1.414 1.414c2.645-2.644 4.101-6.159 4.101-9.899s-1.456-7.255-4.101-9.899l-1.414 1.414c2.267 2.266 3.515 5.279 3.515 8.485s-1.248 6.219-3.515 8.485z"/><path d="m13.758 19.243 1.414-1.414c-.756-.756-1.172-1.761-1.172-2.829s.416-2.073 1.172-2.829l-1.414-1.414c-1.134 1.134-1.758 2.64-1.758 4.243s.624 3.109 1.758 4.243z"/><path d="m10.929 22.071 1.414-1.414c-3.119-3.119-3.119-8.194 0-11.313l-1.414-1.414c-3.9 3.898-3.9 10.242 0 14.141z"/><path d="m9.515 23.485c-2.267-2.266-3.515-5.279-3.515-8.485s1.248-6.219 3.515-8.485l-1.414-1.414c-2.645 2.644-4.101 6.159-4.101 9.899s1.456 7.255 4.101 9.899z"/></g></svg>