<svg id="Layer_5" enable-background="new 0 0 64 64" height="512" viewBox="0 0 64 64" width="512" xmlns="http://www.w3.org/2000/svg"><g><path d="m27 5h-22v6h22zm-2 4h-18v-2h18z"/><path d="m11 13h-6v6h6zm-2 4h-2v-2h2z"/><path d="m13 19h6v-6h-6zm2-4h2v2h-2z"/><path d="m21 19h6v-6h-6zm2-4h2v2h-2z"/><path d="m11 21h-6v6h6zm-2 4h-2v-2h2z"/><path d="m13 27h6v-6h-6zm2-4h2v2h-2z"/><path d="m21 27h6v-6h-6zm2-4h2v2h-2z"/><path d="m11 29h-6v6h6zm-2 4h-2v-2h2z"/><path d="m21 35h6v-6h-6zm2-4h2v2h-2z"/><path d="m60.559 47.145c-1.356-1.357-3.155-2.209-5.064-2.4l-6.634-.663-.406-2.44c2.136-1.439 3.545-3.879 3.545-6.642v-.101c2.279-.465 4-2.484 4-4.899v-5h1c1.103 0 2-.897 2-2v-2c0-1.103-.897-2-2-2h-.051c-.514-6.701-6.119-12-12.949-12s-12.435 5.299-12.949 12h-.051v-15c0-1.654-1.346-3-3-3h-24c-1.654 0-3 1.346-3 3v38c0 1.654 1.346 3 3 3h2.402l.039.078c.366.731.559 1.548.559 2.364v4.108c0 1.076.253 2.152.73 3.113l2.27 4.571v3.721l16 .042v.003h1.063l.937.002v-.002h3 26 6v-9.961c0-2.227-.867-4.321-2.441-5.894zm-13.588-2.239c-.452 1.254-1.633 2.094-2.971 2.094s-2.519-.84-2.971-2.096l.39-2.34c.811.278 1.677.436 2.581.436s1.77-.158 2.581-.435zm-15.971-.906v-2-17h1v5c0 2.414 1.721 4.434 4 4.899v.101c0 2.763 1.409 5.203 3.546 6.641l-.406 2.44-6.634.663c-.513.051-1.016.15-1.506.293zm5-13.09v1.906c-1.161-.414-2-1.514-2-2.816s.839-2.402 2-2.816v.816 1zm2-1.91h12v1.91c0 1.153-.938 2.09-2.09 2.09-.797 0-1.514-.443-1.869-1.154l-.422-.846h-3.238l-.421.845c-.356.712-1.073 1.155-1.87 1.155-1.152 0-2.09-.937-2.09-2.09zm12-2h-12v-2h12zm-14-1.899c-.743.152-1.416.482-2 .924v-1.025h2zm8 15.899c-3.309 0-6-2.691-6-6v-.593c.614.368 1.323.593 2.09.593 1.46 0 2.781-.759 3.517-2h.787c.734 1.241 2.057 2 3.517 2 .766 0 1.476-.225 2.09-.593v.593c-.001 3.309-2.692 6-6.001 6zm8-8.184v-1.906-1.91-1-.816c1.161.414 2 1.514 2 2.816s-.839 2.402-2 2.816zm2-6.79c-.584-.442-1.257-.773-2-.924v-.102h2zm3-3.026h-26v-2h26zm-13-14c5.728 0 10.442 4.402 10.949 10h-21.898c.507-5.598 5.221-10 10.949-10zm-40 34c-.552 0-1-.449-1-1v-38c0-.551.448-1 1-1h24c.552 0 1 .449 1 1v17 2 16.184c-.314-.112-.648-.184-1-.184-.395 0-.77.081-1.116.22-.345-1.275-1.501-2.22-2.884-2.22-.771 0-1.468.301-2 .78-.532-.48-1.229-.78-2-.78-.352 0-.686.072-1 .184v-5.184c0-1.654-1.346-3-3-3s-3 1.346-3 3v9.257c-1.341-1.411-3.245-2.299-5.382-2.299-1.443 0-2.618 1.174-2.618 2.618 0 .404.096.809.276 1.172l.127.252zm5.521 10.773c-.34-.686-.521-1.455-.521-2.223v-4.108c0-1.125-.267-2.252-.77-3.259l-1.165-2.33c-.043-.085-.065-.182-.065-.277 0-.341.277-.618.714-.618 2.915 0 5.286 2.372 5.286 5.287v1.713 2h2v-2-1.713-14.245c0-.551.448-1 1-1s1 .449 1 1v8 4h2v-4c0-.551.448-1 1-1s1 .449 1 1v4h2v-4c0-.551.448-1 1-1s1 .449 1 1v2 2h2v-2c0-.551.448-1 1-1s1 .449 1 1v2 9c0 1.075-.355 2.141-1 3l-2 2.667v2.331l-14-.038v-2.195zm18.479 7.227v-1.667l1.6-2.133c.903-1.204 1.4-2.695 1.4-4.2v8zm5-6h22v2h-22zm0 6v-2h22v2zm28 0h-4v-10h-2v2h-22v-2h-2v-3.822c.548-.218 1.114-.385 1.705-.444l6.652-.665c.85 1.773 2.637 2.931 4.643 2.931s3.794-1.159 4.643-2.931l6.651.665c1.451.145 2.818.793 3.85 1.824 1.197 1.197 1.856 2.788 1.856 4.481z"/></g></svg>