<svg id="Layer_5" enable-background="new 0 0 64 64" height="512" viewBox="0 0 64 64" width="512" xmlns="http://www.w3.org/2000/svg"><g><path d="m63 52c0-3.619-1.216-5.111-2.288-6.429-.913-1.12-1.701-2.087-1.701-4.571v-1.22l-1.196.239c-.117.023-2.48.537-4.158 3.237-.34-.466-.685-.903-1.014-1.313-.918-1.146-1.643-2.051-1.643-2.943 0-2.651 1.814-5.419 1.833-5.446l1.03-1.554h-1.863c-.331 0-7.67.066-12.326 5.275-.403-.805-.674-1.782-.674-3.275v-1.22l-1.196.239c-.176.035-3.307.722-4.895 4.672-1.916-3.979-5.693-4.669-5.744-4.677l-1.165-.195v1.181c0 1.949-.456 3.036-1.075 3.994-1.434-1.852-3.199-3.122-4.961-4.006.08-.122.158-.244.242-.369.61-.911 1.28-1.909 1.602-3.514.609.732 1.192 1.735 1.192 2.895h2c0-3.495-3.305-5.738-3.445-5.832l-1.555-1.037v1.869c0 2.335-.707 3.389-1.456 4.505-.147.22-.297.445-.442.679-3.157-1.15-5.895-1.184-6.102-1.184h-1.869l1.037 1.555c.018.027 1.832 2.779 1.832 5.445 0 .892-.725 1.797-1.644 2.943-.328.41-.674.848-1.014 1.313-1.678-2.7-4.041-3.214-4.158-3.237l-1.195-.239v1.22c0 2.484-.788 3.451-1.701 4.571-1.072 1.318-2.288 2.81-2.288 6.429 0 2.5 1.59 6.574 4.577 9h-4.577v2h62v-2h-4.577c2.987-2.426 4.577-6.5 4.577-9zm-12.775-17.837c-.585 1.247-1.225 3.025-1.225 4.837 0 1.594 1.012 2.856 2.083 4.193 1.367 1.708 2.917 3.643 2.917 6.807 0 2.788-1.782 5.135-3.277 6.613-.554.547-1.162 1.047-1.817 1.499.056-.366.094-.736.094-1.112 0-3.919-1.203-5.868-2.265-7.588-.931-1.509-1.735-2.811-1.735-5.412v-1.477l-1.372.548c-.052.021-.375.159-.832.436-.369-2.166-1.195-3.408-1.981-4.483 2.784-3.415 7.029-4.512 9.41-4.861zm-22.298 1.193c1.521.698 4.073 2.618 4.073 7.644h2c0-4.733 1.841-6.715 3.085-7.514.271 2.204 1.14 3.388 1.986 4.539.884 1.204 1.713 2.363 1.887 4.963-1.454 1.498-2.958 4.005-2.958 8.012h2c0-4.076 1.82-6.253 3.113-7.285.295 2.113 1.119 3.448 1.921 4.748 1.011 1.639 1.966 3.186 1.966 6.537 0 1.463-.573 2.805-1.688 4h-7.446c.665-.669 1.134-1.365 1.134-2 0-2.193-.82-3.416-1.544-4.495-.749-1.116-1.456-2.17-1.456-4.505v-1.868l-1.555 1.036c-.09.06-1.46.994-2.445 2.565-.985-1.571-2.356-2.505-2.445-2.565l-1.555-1.036v1.868c0 2.335-.707 3.389-1.456 4.505-.724 1.079-1.544 2.302-1.544 4.495 0 .635.469 1.331 1.135 2h-7.447c-1.116-1.194-1.688-2.537-1.688-4 0-3.351.955-4.898 1.966-6.537.802-1.3 1.626-2.635 1.92-4.747 1.295 1.033 3.114 3.209 3.114 7.284h2c0-3.111-.91-5.312-1.996-6.847-.001-.051-.004-.102-.004-.153 0-3.309.934-4.589 1.923-5.944.825-1.13 1.744-2.388 2.004-4.7zm-.927 23.573c.016-1.537.542-2.321 1.205-3.31.611-.91 1.281-1.908 1.602-3.514.61.732 1.193 1.736 1.193 2.895h2c0-1.16.583-2.163 1.193-2.895.321 1.604.991 2.604 1.602 3.514.663.988 1.189 1.772 1.205 3.31-.177.381-1.222 1.311-2.313 2.071h-5.374c-1.091-.76-2.136-1.69-2.313-2.071zm-14.083-15.736c1.071-1.337 2.083-2.599 2.083-4.193 0-1.812-.64-3.589-1.225-4.836 2.536.372 7.183 1.596 9.934 5.566-.7 1.044-1.346 2.341-1.594 4.416-.918-.727-1.662-1.042-1.744-1.074l-1.371-.549v1.477c0 2.601-.804 3.903-1.735 5.412-1.062 1.72-2.265 3.669-2.265 7.588 0 .343.032.681.078 1.017-1.079-.727-2.041-1.566-2.843-2.54-1.483-1.802-2.235-3.645-2.235-5.477 0-3.164 1.55-5.099 2.917-6.807zm-9.917 8.807c0-2.907.852-3.954 1.839-5.165.836-1.026 1.764-2.166 2.057-4.349.698.448 1.58 1.272 2.224 2.732-.654 1.299-1.12 2.847-1.12 4.782 0 2.309.906 4.579 2.692 6.748 1.433 1.74 3.265 3.134 5.43 4.166.017.029.037.057.055.086h-5.177c-5.278 0-8-6.309-8-9zm44.902 9c1.596-.784 3.021-1.773 4.227-2.965 2.532-2.503 3.871-5.281 3.871-8.035 0-1.935-.466-3.483-1.12-4.781.645-1.461 1.528-2.287 2.224-2.733.292 2.184 1.221 3.323 2.057 4.35.987 1.21 1.839 2.257 1.839 5.164 0 2.691-2.722 9-8 9z"/><path d="m12.269 14.899 2.308 6.154c.437 1.165 1.566 1.947 2.809 1.947h29.228c1.244 0 2.373-.782 2.81-1.947l2.308-6.154c1.299-.328 2.268-1.498 2.268-2.899v-8c0-1.654-1.346-3-3-3h-38c-1.654 0-3 1.346-3 3v8c0 1.401.969 2.571 2.269 2.899zm35.282 5.452c-.146.388-.523.649-.937.649h-29.228c-.415 0-.791-.261-.937-.649l-2.006-5.351h2.557v4h6v-4h2v4h6v-4h2v4h6v-4h2v4h6v-4h2.557zm-28.551-5.351h2v2h-2zm8 0h2v2h-2zm8 0h2v2h-2zm8 0h2v2h-2zm9-6h-19c-.551 0-1-.449-1-1s.449-1 1-1h19zm-39-6h38c.551 0 1 .449 1 1v1h-19c-1.654 0-3 1.346-3 3s1.346 3 3 3h19v1c0 .551-.449 1-1 1h-38c-.551 0-1-.449-1-1v-1h11c1.654 0 3-1.346 3-3s-1.346-3-3-3h-11v-1c0-.551.449-1 1-1zm-1 6v-2h11c.551 0 1 .449 1 1s-.449 1-1 1z"/><path d="m50 27v2c3.86 0 7-3.14 7-7h-2c0 2.757-2.243 5-5 5z"/><path d="m51 22c0 .551-.449 1-1 1v2c1.654 0 3-1.346 3-3z"/><path d="m14 29v-2c-2.757 0-5-2.243-5-5h-2c0 3.86 3.14 7 7 7z"/><path d="m11 22c0 1.654 1.346 3 3 3v-2c-.551 0-1-.449-1-1z"/></g></svg>