<svg id="Layer_5" enable-background="new 0 0 64 64" height="512" viewBox="0 0 64 64" width="512" xmlns="http://www.w3.org/2000/svg"><g><circle cx="16" cy="26" r="1"/><path d="m13 57h6v2h-6z"/><path d="m16 43c-1.654 0-3 1.346-3 3s1.346 3 3 3 3-1.346 3-3-1.346-3-3-3zm0 4c-.551 0-1-.449-1-1s.449-1 1-1 1 .449 1 1-.449 1-1 1z"/><path d="m11.05 41.05 1.414 1.414c1.949-1.949 5.122-1.949 7.071 0l1.414-1.414c-2.729-2.729-7.169-2.729-9.899 0z"/><path d="m22.364 39.636 1.414-1.414c-4.289-4.289-11.268-4.289-15.557 0l1.414 1.414c3.511-3.509 9.219-3.509 12.729 0z"/><path d="m53 39h-12v10h12zm-2 8h-8v-6h8z"/><path d="m61 61v-10h-2v-14h3.443l-3.75-10h-1.693v-4h2v-2h-4v-6h2.618l-5-10h-23.089l-5.147-3.302c-1.424-.913-3.339-.913-4.763 0l-15.21 9.758c-1.402.879-1.828 2.733-.952 4.133.551.884 1.503 1.411 2.545 1.411.343 0 .679-.066.999-.179v4.179h-1.001c-2.757 0-5 2.243-5 5v32c0 2.757 2.243 5 5 5h19 1 37v-2zm-2-8v8h-2v-8zm-2-2h-2v10h-2v-10h-6v10h-2v-10h-6v10h-2l.001-24h19.999zm-6 10h-2v-8h2zm-8 0h-2v-8h2zm-12-3v-27h4.001l-.001 30h-5.026c.635-.838 1.026-1.87 1.026-3zm18-31v-4h2v4zm-2 0h-2v-4h2zm-4 0h-2v-4h2zm-4 0h-1.999v-4h1.999zm20.557 8h-22.556v-6h20.306zm-4.557-8h-2v-4h2zm-2-6h-15.999v-4.179c.32.113.656.179.999.179 1.042 0 1.994-.527 2.544-1.409.119-.19.209-.388.281-.591h12.175zm-1.618-14 3 6h-13.567c-.217-.615-.622-1.167-1.214-1.538l-6.955-4.462zm-46.229 7.529c-.292-.467-.149-1.085.327-1.384l15.219-9.764c.778-.5 1.825-.5 2.603 0l15.228 9.769c.468.293.611.912.318 1.38-.283.452-.922.6-1.377.317l-15.47-9.667-15.47 9.668c-.456.282-1.095.135-1.378-.319zm3.848 1.134 13-8.125 13 8.124v13.337h-4.001v-3c0-2.414-1.721-4.434-4-4.899v-6.1h-10v6h-7.999zm0 7.337h1.999v3c0 1.13.391 2.162 1.026 3h-3.025zm4.994 8h11.005l.001 22h-18.001v-22h.001zm2.005-2c-1.654 0-3-1.346-3-3v-3h6v3c0 1.654-1.346 3-3 3zm3-8v-4h6v4zm6 40h-19c-1.654 0-3-1.346-3-3v-32c0-1.654 1.346-3 3-3h1.001v6h-.001c-1.103 0-2 .897-2 2v22c0 1.103.897 2 2 2h18c1.103 0 2-.897 2-2v-22c0-1.103-.897-2-2-2h-5.026c.635-.838 1.026-1.87 1.026-3v-3h5c1.654 0 3 1.346 3 3v32c0 1.654-1.346 3-3 3z"/></g></svg>